<?xml version="1.0" encoding="UTF-8" standalone="no"?><svg xmlns="http://www.w3.org/2000/svg" xmlns:xlink="http://www.w3.org/1999/xlink" contentStyleType="text/css" height="170px" preserveAspectRatio="none" style="width:471px;height:170px;background:#FFFFFF;" version="1.1" viewBox="0 0 471 170" width="471px" zoomAndPan="magnify"><defs/><g><!--MD5=[f6a8df5389af227bf545ee491092f6ff]
class CoinsController--><g id="elem_CoinsController"><rect codeLine="1" fill="#F1F1F1" height="48" id="CoinsController" rx="2.5" ry="2.5" style="stroke:#181818;stroke-width:0.5;" width="130" x="7" y="7"/><ellipse cx="22" cy="23" fill="#ADD1B2" rx="11" ry="11" style="stroke:#181818;stroke-width:1.0;"/><path d="M24,19.5 Q24.2031,19 24.4375,18.75 Q24.6719,18.5 24.9375,18.5 Q25.4063,18.5 25.7031,18.7813 Q26,19.0625 26,19.7188 L26,21.2813 Q26,21.9375 25.7188,22.2188 Q25.4375,22.5 25,22.5 Q24.6094,22.5 24.3594,22.3281 Q24.1094,22.1563 24,21.7031 Q23.9531,21.3906 23.7813,21.2188 Q23.4688,20.8906 22.9063,20.7031 Q22.3438,20.5 21.7813,20.5 Q21.0781,20.5 20.4844,20.7813 Q19.9063,21.0625 19.4531,21.6875 Q19,22.3125 19,23.1719 L19,24.0938 Q19,25.125 19.8438,25.8125 Q20.6875,26.5 22.1875,26.5 Q23.0781,26.5 23.7031,26.2969 Q24.0625,26.1875 24.4688,25.8281 Q24.7344,25.625 24.875,25.5625 Q25.0156,25.5 25.1875,25.5 Q25.5156,25.5 25.75,25.7656 Q26,26.0156 26,26.375 Q26,26.7188 25.6563,27.125 Q25.1563,27.7188 24.3594,28.0469 Q23.3125,28.5 22.0313,28.5 Q20.5313,28.5 19.3281,27.9063 Q18.3594,27.4375 17.6719,26.4219 Q17,25.4063 17,24.2031 L17,23.1094 Q17,21.8594 17.5938,20.7656 Q18.2031,19.6719 19.25,19.0938 Q20.3125,18.5 21.5,18.5 Q22.2188,18.5 22.8438,18.75 Q23.4688,19 24,19.5 Z " fill="#000000"/><text fill="#000000" font-family="sans-serif" font-size="14" lengthAdjust="spacing" textLength="98" x="36" y="28.7285">CoinsController</text><line style="stroke:#181818;stroke-width:0.5;" x1="8" x2="136" y1="39" y2="39"/><line style="stroke:#181818;stroke-width:0.5;" x1="8" x2="136" y1="47" y2="47"/></g><!--MD5=[ad252372b1fb5becb3a15843e8feca50]
class CoinsService--><g id="elem_CoinsService"><rect codeLine="3" fill="#F1F1F1" height="48" id="CoinsService" rx="2.5" ry="2.5" style="stroke:#181818;stroke-width:0.5;" width="115" x="173.5" y="115"/><ellipse cx="188.5" cy="131" fill="#ADD1B2" rx="11" ry="11" style="stroke:#181818;stroke-width:1.0;"/><path d="M190.5,127.5 Q190.7031,127 190.9375,126.75 Q191.1719,126.5 191.4375,126.5 Q191.9063,126.5 192.2031,126.7813 Q192.5,127.0625 192.5,127.7188 L192.5,129.2813 Q192.5,129.9375 192.2188,130.2188 Q191.9375,130.5 191.5,130.5 Q191.1094,130.5 190.8594,130.3281 Q190.6094,130.1563 190.5,129.7031 Q190.4531,129.3906 190.2813,129.2188 Q189.9688,128.8906 189.4063,128.7031 Q188.8438,128.5 188.2813,128.5 Q187.5781,128.5 186.9844,128.7813 Q186.4063,129.0625 185.9531,129.6875 Q185.5,130.3125 185.5,131.1719 L185.5,132.0938 Q185.5,133.125 186.3438,133.8125 Q187.1875,134.5 188.6875,134.5 Q189.5781,134.5 190.2031,134.2969 Q190.5625,134.1875 190.9688,133.8281 Q191.2344,133.625 191.375,133.5625 Q191.5156,133.5 191.6875,133.5 Q192.0156,133.5 192.25,133.7656 Q192.5,134.0156 192.5,134.375 Q192.5,134.7188 192.1563,135.125 Q191.6563,135.7188 190.8594,136.0469 Q189.8125,136.5 188.5313,136.5 Q187.0313,136.5 185.8281,135.9063 Q184.8594,135.4375 184.1719,134.4219 Q183.5,133.4063 183.5,132.2031 L183.5,131.1094 Q183.5,129.8594 184.0938,128.7656 Q184.7031,127.6719 185.75,127.0938 Q186.8125,126.5 188,126.5 Q188.7188,126.5 189.3438,126.75 Q189.9688,127 190.5,127.5 Z " fill="#000000"/><text fill="#000000" font-family="sans-serif" font-size="14" lengthAdjust="spacing" textLength="83" x="202.5" y="136.7285">CoinsService</text><line style="stroke:#181818;stroke-width:0.5;" x1="174.5" x2="287.5" y1="147" y2="147"/><line style="stroke:#181818;stroke-width:0.5;" x1="174.5" x2="287.5" y1="155" y2="155"/></g><!--MD5=[f01fd7c75a7935e2f195052413962e06]
class ICoinsService--><g id="elem_ICoinsService"><rect codeLine="5" fill="#F1F1F1" height="48" id="ICoinsService" rx="2.5" ry="2.5" style="stroke:#181818;stroke-width:0.5;" width="118" x="172" y="7"/><ellipse cx="187" cy="23" fill="#B4A7E5" rx="11" ry="11" style="stroke:#181818;stroke-width:1.0;"/><path d="M188,20 L188,26 L190,26 L190.4844,26 L191,26.625 L191,27 L191,27.375 L190.4844,28 L190,28 L184,28 L183.5156,28 L183,27.375 L183,27 L183,26.625 L183.5156,26 L184,26 L186,26 L186,20 L184,20 L183.5156,20 L183,19.375 L183,19 L183,18.625 L183.5156,18 L184,18 L190,18 L190.4844,18 L191,18.625 L191,19 L191,19.375 L190.4844,20 L190,20 L188,20 Z " fill="#000000"/><text fill="#000000" font-family="sans-serif" font-size="14" font-style="italic" lengthAdjust="spacing" textLength="86" x="201" y="28.7285">ICoinsService</text><line style="stroke:#181818;stroke-width:0.5;" x1="173" x2="289" y1="39" y2="39"/><line style="stroke:#181818;stroke-width:0.5;" x1="173" x2="289" y1="47" y2="47"/></g><!--MD5=[588d8a17d0200ca0b968d66aff140771]
class ICoinsRepository--><g id="elem_ICoinsRepository"><rect codeLine="7" fill="#F1F1F1" height="48" id="ICoinsRepository" rx="2.5" ry="2.5" style="stroke:#181818;stroke-width:0.5;" width="140" x="324" y="115"/><ellipse cx="339" cy="131" fill="#B4A7E5" rx="11" ry="11" style="stroke:#181818;stroke-width:1.0;"/><path d="M340,128 L340,134 L342,134 L342.4844,134 L343,134.625 L343,135 L343,135.375 L342.4844,136 L342,136 L336,136 L335.5156,136 L335,135.375 L335,135 L335,134.625 L335.5156,134 L336,134 L338,134 L338,128 L336,128 L335.5156,128 L335,127.375 L335,127 L335,126.625 L335.5156,126 L336,126 L342,126 L342.4844,126 L343,126.625 L343,127 L343,127.375 L342.4844,128 L342,128 L340,128 Z " fill="#000000"/><text fill="#000000" font-family="sans-serif" font-size="14" font-style="italic" lengthAdjust="spacing" textLength="108" x="353" y="136.7285">ICoinsRepository</text><line style="stroke:#181818;stroke-width:0.5;" x1="325" x2="463" y1="147" y2="147"/><line style="stroke:#181818;stroke-width:0.5;" x1="325" x2="463" y1="155" y2="155"/></g><!--MD5=[5d9d7f361cf9aacac4ee237afb90f58a]
class JpaRepository--><g id="elem_JpaRepository"><rect fill="#F1F1F1" height="48" id="JpaRepository" rx="2.5" ry="2.5" style="stroke:#181818;stroke-width:0.5;" width="122" x="333" y="7"/><ellipse cx="348" cy="23" fill="#ADD1B2" rx="11" ry="11" style="stroke:#181818;stroke-width:1.0;"/><path d="M350,19.5 Q350.2031,19 350.4375,18.75 Q350.6719,18.5 350.9375,18.5 Q351.4063,18.5 351.7031,18.7813 Q352,19.0625 352,19.7188 L352,21.2813 Q352,21.9375 351.7188,22.2188 Q351.4375,22.5 351,22.5 Q350.6094,22.5 350.3594,22.3281 Q350.1094,22.1563 350,21.7031 Q349.9531,21.3906 349.7813,21.2188 Q349.4688,20.8906 348.9063,20.7031 Q348.3438,20.5 347.7813,20.5 Q347.0781,20.5 346.4844,20.7813 Q345.9063,21.0625 345.4531,21.6875 Q345,22.3125 345,23.1719 L345,24.0938 Q345,25.125 345.8438,25.8125 Q346.6875,26.5 348.1875,26.5 Q349.0781,26.5 349.7031,26.2969 Q350.0625,26.1875 350.4688,25.8281 Q350.7344,25.625 350.875,25.5625 Q351.0156,25.5 351.1875,25.5 Q351.5156,25.5 351.75,25.7656 Q352,26.0156 352,26.375 Q352,26.7188 351.6563,27.125 Q351.1563,27.7188 350.3594,28.0469 Q349.3125,28.5 348.0313,28.5 Q346.5313,28.5 345.3281,27.9063 Q344.3594,27.4375 343.6719,26.4219 Q343,25.4063 343,24.2031 L343,23.1094 Q343,21.8594 343.5938,20.7656 Q344.2031,19.6719 345.25,19.0938 Q346.3125,18.5 347.5,18.5 Q348.2188,18.5 348.8438,18.75 Q349.4688,19 350,19.5 Z " fill="#000000"/><text fill="#000000" font-family="sans-serif" font-size="14" lengthAdjust="spacing" textLength="90" x="362" y="28.7285">JpaRepository</text><line style="stroke:#181818;stroke-width:0.5;" x1="334" x2="454" y1="39" y2="39"/><line style="stroke:#181818;stroke-width:0.5;" x1="334" x2="454" y1="47" y2="47"/></g><!--MD5=[8b349b43514ed7e218f85c400093e049]
reverse link ICoinsService to CoinsService--><g id="link_ICoinsService_CoinsService"><path codeLine="11" d="M231,75.02 C231,88.58 231,103.04 231,114.68 " fill="none" id="ICoinsService-backto-CoinsService" style="stroke:#181818;stroke-width:1.0;stroke-dasharray:7.0,7.0;"/><polygon fill="none" points="224,75,231,55,238,75,224,75" style="stroke:#181818;stroke-width:1.0;"/></g><!--MD5=[7d3875fb3cd431aee3e7cdf2d31972d1]
reverse link JpaRepository to ICoinsRepository--><g id="link_JpaRepository_ICoinsRepository"><path codeLine="12" d="M394,75.02 C394,88.58 394,103.04 394,114.68 " fill="none" id="JpaRepository-backto-ICoinsRepository" style="stroke:#181818;stroke-width:1.0;"/><polygon fill="none" points="387,75,394,55,401,75,387,75" style="stroke:#181818;stroke-width:1.0;"/></g><!--MD5=[8fc1e4bb8edfbead17887bf764a2ee8f]
@startuml
class CoinsController {
}
class CoinsService {
}
interface ICoinsService {
}
interface ICoinsRepository {
}


ICoinsService <|.. CoinsService
JpaRepository <|- - ICoinsRepository
@enduml

PlantUML version 1.2022.12(Sun Oct 23 15:12:26 ART 2022)
(GPL source distribution)
Java Runtime: OpenJDK Runtime Environment
JVM: OpenJDK 64-Bit Server VM
Default Encoding: Cp1252
Language: es
Country: MX
--></g></svg>